<svg xmlns="http://www.w3.org/2000/svg" viewBox="0 0 920 246" width="920" height="246">
<defs>
  <marker id="ae02" viewBox="0 0 10 10" markerWidth="7" markerHeight="7" refX="9" refY="5" orient="auto" markerUnits="userSpaceOnUse">
    <path d="M0,1 L9,5 L0,9 Z" fill="#cc0000"/>
  </marker>
</defs>
<rect width="920" height="246" fill="#f7f7f7" stroke="#d0d0d0" stroke-width="2"/>
<text x="460" y="28" text-anchor="middle" font-family="Arial, Helvetica, sans-serif" font-size="18" fill="#1a1a1a">Four common MongoDB deployment options</text>
<rect x="20" y="48" width="210" height="54" rx="10" fill="#ffebeb" stroke="#cc0000" stroke-width="2"/>
<text x="125.0" y="78.3" text-anchor="middle" font-family="Arial, Helvetica, sans-serif" font-size="15" fill="#cc0000">Local</text>
<rect x="20" y="110" width="210" height="48" rx="10" fill="#ffffff" stroke="#cc0000" stroke-width="2"/>
<text x="125.0" y="136.9" text-anchor="middle" font-family="Arial, Helvetica, sans-serif" font-size="13" fill="#1a1a1a">Workstation install</text>
<rect x="20" y="164" width="210" height="48" rx="10" fill="#ffffff" stroke="#cc0000" stroke-width="2"/>
<text x="125.0" y="190.9" text-anchor="middle" font-family="Arial, Helvetica, sans-serif" font-size="13" fill="#1a1a1a">Labs and learning</text>
<rect x="245" y="48" width="210" height="54" rx="10" fill="#ffebeb" stroke="#cc0000" stroke-width="2"/>
<text x="350.0" y="78.3" text-anchor="middle" font-family="Arial, Helvetica, sans-serif" font-size="15" fill="#cc0000">Self-managed</text>
<rect x="245" y="110" width="210" height="48" rx="10" fill="#ffffff" stroke="#cc0000" stroke-width="2"/>
<text x="350.0" y="136.9" text-anchor="middle" font-family="Arial, Helvetica, sans-serif" font-size="13" fill="#1a1a1a">Org server or VM</text>
<rect x="245" y="164" width="210" height="48" rx="10" fill="#ffffff" stroke="#cc0000" stroke-width="2"/>
<text x="350.0" y="190.9" text-anchor="middle" font-family="Arial, Helvetica, sans-serif" font-size="13" fill="#1a1a1a">Direct control</text>
<rect x="470" y="48" width="210" height="54" rx="10" fill="#ffebeb" stroke="#cc0000" stroke-width="2"/>
<text x="575.0" y="78.3" text-anchor="middle" font-family="Arial, Helvetica, sans-serif" font-size="15" fill="#cc0000">Container</text>
<rect x="470" y="110" width="210" height="48" rx="10" fill="#ffffff" stroke="#cc0000" stroke-width="2"/>
<text x="575.0" y="136.9" text-anchor="middle" font-family="Arial, Helvetica, sans-serif" font-size="13" fill="#1a1a1a">Disposable instance</text>
<rect x="470" y="164" width="210" height="48" rx="10" fill="#ffffff" stroke="#cc0000" stroke-width="2"/>
<text x="575.0" y="190.9" text-anchor="middle" font-family="Arial, Helvetica, sans-serif" font-size="13" fill="#1a1a1a">Tests and demos</text>
<rect x="695" y="48" width="210" height="54" rx="10" fill="#ffebeb" stroke="#cc0000" stroke-width="2"/>
<text x="800.0" y="78.3" text-anchor="middle" font-family="Arial, Helvetica, sans-serif" font-size="15" fill="#cc0000">Managed cloud</text>
<rect x="695" y="110" width="210" height="48" rx="10" fill="#ffffff" stroke="#cc0000" stroke-width="2"/>
<text x="800.0" y="136.9" text-anchor="middle" font-family="Arial, Helvetica, sans-serif" font-size="13" fill="#1a1a1a">Provider cluster</text>
<rect x="695" y="164" width="210" height="48" rx="10" fill="#ffffff" stroke="#cc0000" stroke-width="2"/>
<text x="800.0" y="190.9" text-anchor="middle" font-family="Arial, Helvetica, sans-serif" font-size="13" fill="#1a1a1a">Shared / less ops</text>
<text x="460" y="234" text-anchor="middle" font-family="Arial, Helvetica, sans-serif" font-size="15" fill="#666666">Commands stay similar; operations ownership changes</text>
</svg>
