<svg xmlns="http://www.w3.org/2000/svg" viewBox="0 0 920 400" width="920" height="400">
<defs>
  <marker id="ae13" viewBox="0 0 10 10" markerWidth="7" markerHeight="7" refX="9" refY="5" orient="auto" markerUnits="userSpaceOnUse">
    <path d="M0,1 L9,5 L0,9 Z" fill="#cc0000"/>
  </marker>
</defs>
<rect width="920" height="400" fill="#f7f7f7" stroke="#d0d0d0" stroke-width="2"/>
<text x="460" y="28" text-anchor="middle" font-family="Arial, Helvetica, sans-serif" font-size="18" fill="#1a1a1a">MongoDB environment components</text>
<rect x="200" y="40" width="520" height="52" rx="10" fill="#ffffff" stroke="#cc0000" stroke-width="2"/>
<text x="460.0" y="70.0" text-anchor="middle" font-family="Arial, Helvetica, sans-serif" font-size="18" fill="#1a1a1a">Client tools</text>
<line x1="460.0" y1="92" x2="460.0" y2="104" stroke="#cc0000" stroke-width="2" marker-end="url(#ae13)"/>
<rect x="200" y="108" width="520" height="52" rx="10" fill="#ffffff" stroke="#cc0000" stroke-width="2"/>
<text x="460.0" y="138.0" text-anchor="middle" font-family="Arial, Helvetica, sans-serif" font-size="18" fill="#1a1a1a">Network connection</text>
<line x1="460.0" y1="160" x2="460.0" y2="172" stroke="#cc0000" stroke-width="2" marker-end="url(#ae13)"/>
<rect x="200" y="176" width="520" height="52" rx="10" fill="#ffffff" stroke="#cc0000" stroke-width="2"/>
<text x="460.0" y="196.6" text-anchor="middle" font-family="Arial, Helvetica, sans-serif" font-size="16" fill="#1a1a1a">Server process</text>
<text x="460.0" y="214.5" text-anchor="middle" font-family="Arial, Helvetica, sans-serif" font-size="13" fill="#666666">mongod</text>
<line x1="460.0" y1="228" x2="460.0" y2="240" stroke="#cc0000" stroke-width="2" marker-end="url(#ae13)"/>
<rect x="200" y="244" width="520" height="52" rx="10" fill="#ffffff" stroke="#cc0000" stroke-width="2"/>
<text x="460.0" y="274.0" text-anchor="middle" font-family="Arial, Helvetica, sans-serif" font-size="18" fill="#1a1a1a">Storage engine</text>
<line x1="460.0" y1="296" x2="460.0" y2="308" stroke="#cc0000" stroke-width="2" marker-end="url(#ae13)"/>
<rect x="200" y="312" width="520" height="52" rx="10" fill="#ffffff" stroke="#cc0000" stroke-width="2"/>
<text x="460.0" y="342.0" text-anchor="middle" font-family="Arial, Helvetica, sans-serif" font-size="18" fill="#1a1a1a">Data and indexes</text>
<text x="460" y="386" text-anchor="middle" font-family="Arial, Helvetica, sans-serif" font-size="15" fill="#666666">A failure can sit at any layer — not only “is MongoDB installed?”</text>
</svg>
